# xmcd CD database file
#
# Track frame offsets:
#	150
#	22819
#	57057
#	69434
#	83289
#	95715
#	108343
#	119834
#	136612
#	148402
#	161641
#	172543
#	186270
#	202199
#
# Disc length: 2854 seconds
#
# Revision: 0
# Processed by: cddbd v1.5.2PL0 Copyright (c) Steve Scherf et al.
# Submitted via: CDex 1.75
#
DISCID=ba0b240e
DTITLE=Various Artist - Greatest Blues Standards CD 1
DYEAR=2019
DGENRE=Blues
TTITLE0=The Thrill Is Gone (Live) - B.B. King
TTITLE1=Forty Four (Live) - Howlin' Wolf
TTITLE2=Hide Away - Freddie King
TTITLE3=Further On Up The Road - Bobby Blue Bland
TTITLE4=Five Long Years - Eddie Boyd
TTITLE5=The Sky Is Crying - Elmore James
TTITLE6=It Hurts Me Too - Tampa Red
TTITLE7=C.C. Rider - John Lee Hooker
TTITLE8=My Babe - Little Walter
TTITLE9=Got My Mojo Working - Muddy Waters
TTITLE10=Baby What You Want Me To Do - Jimmy Reed
TTITLE11=Walking Blues - Muddy Waters
TTITLE12=Trouble In Mind - Big Bill Broonzy
TTITLE13=All Your Love - Otis Rush
EXTD=YEAR: 2019
EXTT0=
EXTT1=
EXTT2=
EXTT3=
EXTT4=
EXTT5=
EXTT6=
EXTT7=
EXTT8=
EXTT9=
EXTT10=
EXTT11=
EXTT12=
EXTT13=
PLAYORDER=
